<svg viewBox="0 0 138 124" fill="none" xmlns="http://www.w3.org/2000/svg">
<path d="M98.7675 2.76081L10.6823 13.5763C4.98139 14.2763 0.927316 19.4653 1.6273 25.1662L12.4428 113.251C13.1428 118.952 18.3318 123.006 24.0327 122.306L112.118 111.491C117.819 110.791 121.873 105.602 121.173 99.901L110.357 11.8159C109.657 6.1149 104.468 2.06082 98.7675 2.76081Z" fill="#F39F0E"/>
<path d="M115.408 0.680795L27.3225 11.4963C21.6215 12.1963 17.5675 17.3853 18.2674 23.0862L29.0829 111.171C29.7829 116.872 34.9719 120.926 40.6729 120.226L128.758 109.411C134.459 108.711 138.513 103.522 137.813 97.821L126.998 9.73583C126.298 4.03489 121.109 -0.0191933 115.408 0.680795Z" fill="#FAB400"/>
<path d="M102.994 45.728C85.5987 57.6464 69.6867 58.9014 50.6963 52.1483L62.0947 71.007L95.8115 66.8678L102.994 45.728Z" fill="#F39F0E"/>
<path d="M107.766 27.6765L91.2503 29.7044C87.4497 30.171 84.747 33.6303 85.2136 37.431L88.0865 60.8286C88.5531 64.6292 92.0125 67.3319 95.8131 66.8653L112.329 64.8374C116.13 64.3707 118.832 60.9114 118.366 57.1108L115.493 33.7131C115.026 29.9125 111.567 27.2098 107.766 27.6765Z" fill="white"/>
<path d="M25.9442 31.3691C27.8023 19.8944 42.1058 13.4741 52.3463 18.2443C53.5527 18.7365 53.5181 20.5808 52.3186 21.0384C51.0775 21.5792 49.8295 21.8843 48.6717 22.2309C46.6055 22.9173 44.4701 23.5275 42.4663 24.3872C37.8141 26.1621 33.6541 29.0533 29.8546 32.2912C29.7159 32.3952 29.3623 32.7141 29.2167 32.7835L28.3917 33.1787C27.1922 33.8027 25.7015 32.6795 25.9442 31.3691Z" fill="#E1761F"/>
<path d="M101.291 37.5563L96.4734 38.1478C93.813 38.4744 91.9211 40.896 92.2477 43.5564L93.7687 55.9434C94.0953 58.6038 96.5168 60.4957 99.1773 60.1691L103.994 59.5776C106.655 59.2509 108.547 56.8294 108.22 54.169L106.699 41.782C106.373 39.1216 103.951 37.2297 101.291 37.5563Z" fill="#222938"/>
<path d="M96.1993 47.2603L86.562 48.4459L85.21 37.4358L97.5998 35.9174L98.6121 44.175C98.7993 45.6934 97.7177 47.08 96.1993 47.2672V47.2603Z" fill="white"/>
<path d="M50.3628 43.813L45.5457 44.4045C42.8852 44.7312 40.9933 47.1527 41.32 49.8131L42.8409 62.2001C43.1676 64.8605 45.5891 66.7524 48.2495 66.4258L53.0667 65.8343C55.7271 65.5077 57.619 63.0861 57.2924 60.4257L55.7715 48.0387C55.4448 45.3783 53.0233 43.4864 50.3628 43.813Z" fill="#222938"/>
<path d="M45.2745 53.5142L35.6372 54.6998L34.2852 43.6897L46.675 42.1713L47.6873 50.4289C47.8745 51.9473 46.7929 53.3339 45.2745 53.5211V53.5142Z" fill="white"/>
</svg>
