<svg width="162" height="137" viewBox="0 0 162 137" fill="none" xmlns="http://www.w3.org/2000/svg">
<rect x="0.5" y="125.615" width="161" height="11" rx="5.5" fill="#2F3645"/>
<path d="M110.233 40.6666H41.9668C37.5485 40.6666 33.9668 44.2483 33.9668 48.6666V116.933C33.9668 121.352 37.5485 124.933 41.9668 124.933H110.233C114.652 124.933 118.233 121.352 118.233 116.933V48.6666C118.233 44.2483 114.652 40.6666 110.233 40.6666Z" fill="#F39F0E"/>
<path d="M123.033 40.6666H54.7666C50.3483 40.6666 46.7666 44.2483 46.7666 48.6666V116.933C46.7666 121.352 50.3483 124.933 54.7666 124.933H123.033C127.452 124.933 131.033 121.352 131.033 116.933V48.6666C131.033 44.2483 127.452 40.6666 123.033 40.6666Z" fill="#FAB400"/>
<path d="M109.7 73.3226C95.2998 80.7893 83.0332 80.256 69.1665 73.3226L76.0998 88.7893H102.233L109.7 73.3226Z" fill="#F39F0E"/>
<path d="M115.033 59.9894H102.233C99.2877 59.9894 96.8999 62.3772 96.8999 65.3227V83.456C96.8999 86.4016 99.2877 88.7894 102.233 88.7894H115.033C117.979 88.7894 120.367 86.4016 120.367 83.456V65.3227C120.367 62.3772 117.979 59.9894 115.033 59.9894Z" fill="white"/>
<path d="M75.5664 59.9894H62.7664C59.8209 59.9894 57.4331 62.3772 57.4331 65.3227V83.456C57.4331 86.4016 59.8209 88.7894 62.7664 88.7894H75.5664C78.512 88.7894 80.8998 86.4016 80.8998 83.456V65.3227C80.8998 62.3772 78.512 59.9894 75.5664 59.9894Z" fill="white"/>
<path d="M98.3669 103.296C93.2522 108.411 84.9589 108.411 79.8442 103.296" stroke="#222938" stroke-width="13.8667" stroke-linecap="round" stroke-linejoin="round"/>
<path d="M111.945 13.1679C108.318 9.17326 103.449 13.4666 103.449 13.4666C103.449 13.4666 100.708 7.44526 95.5183 10.3999C89.9716 13.5573 95.433 26.3413 101.118 27.3013C107.156 28.3199 116.745 18.4533 111.945 13.1679Z" fill="#FE4E84"/>
<path opacity="0.4" d="M87.4705 24.7413C84.7238 23.1466 82.7611 26.4213 82.7611 26.4213C82.7611 26.4213 80.1531 23.5306 77.7691 26.1119C75.2198 28.8693 80.5531 35.0666 83.9131 34.5919C87.4811 34.0906 91.1025 26.8533 87.4705 24.7413Z" fill="#FE4E84"/>
<path d="M56.3667 89.856C56.3667 89.856 61.556 87.1893 66.5 89.856" stroke="#FFDE76" stroke-width="5.33333" stroke-linecap="round" stroke-linejoin="round"/>
<path d="M121.433 89.856C121.433 89.856 116.244 87.1893 111.3 89.856" stroke="#FFDE76" stroke-width="5.33333" stroke-linecap="round" stroke-linejoin="round"/>
<path d="M79.8439 96.3627C81.6199 96.3627 83.3906 97.04 84.7453 98.3947C85.9079 99.5573 87.4599 100.203 89.1026 100.203C90.7453 100.203 92.2973 99.5627 93.4599 98.3947C96.1693 95.6853 100.559 95.6853 103.263 98.3947C105.967 101.104 105.972 105.493 103.263 108.197C95.4546 116.005 82.7453 116.005 74.9373 108.197C72.2279 105.488 72.2279 101.099 74.9373 98.3947C76.2919 97.04 78.0679 96.3627 79.8386 96.3627H79.8439Z" fill="#222938"/>
<mask id="mask0_1331_17515" style="mask-type:luminance" maskUnits="userSpaceOnUse" x="72" y="96" width="34" height="19">
<path d="M79.8439 96.3627C81.6199 96.3627 83.3906 97.04 84.7453 98.3947C85.9079 99.5573 87.4599 100.203 89.1026 100.203C90.7453 100.203 92.2973 99.5627 93.4599 98.3947C96.1693 95.6853 100.559 95.6853 103.263 98.3947C105.967 101.104 105.972 105.493 103.263 108.197C95.4546 116.005 82.7453 116.005 74.9373 108.197C72.2279 105.488 72.2279 101.099 74.9373 98.3947C76.2919 97.04 78.0679 96.3627 79.8386 96.3627H79.8439Z" fill="white"/>
</mask>
<g mask="url(#mask0_1331_17515)">
<path d="M79.625 104.784C81.113 104.955 83.3317 106.395 85.7637 106.731C88.1957 107.067 90.8357 106.293 92.5103 106.891C93.385 107.2 94.0357 107.557 94.3503 107.957C95.8543 109.893 95.5023 112.688 93.561 114.192C87.9717 118.528 79.8917 117.509 75.5557 111.915C74.0517 109.979 74.4037 107.184 76.345 105.68C77.3157 104.928 78.4943 104.64 79.625 104.784Z" fill="#FE4E84"/>
</g>
</svg>
