<svg width="40" height="40" viewBox="0 0 40 40" fill="none" xmlns="http://www.w3.org/2000/svg">
<path d="M34.4131 4.457L21.9209 13.7351L24.231 8.26114L34.4131 4.457Z" fill="#E2761B" stroke="#E2761B" stroke-linecap="round" stroke-linejoin="round"/>
<path d="M5.5744 4.457L17.9661 13.823L15.769 8.26114L5.5744 4.457ZM29.9184 25.9636L26.5913 31.0609L33.71 33.0195L35.7564 26.0766L29.9184 25.9636ZM4.25613 26.0766L6.29003 33.0195L13.4087 31.0609L10.0816 25.9636L4.25613 26.0766Z" fill="#E4761B" stroke="#E4761B" stroke-linecap="round" stroke-linejoin="round"/>
<path d="M13.0069 17.3509L11.0232 20.3515L18.0916 20.6654L17.8405 13.0697L13.0069 17.3509ZM26.9805 17.3509L22.0841 12.9818L21.9209 20.6654L28.9768 20.3515L26.9805 17.3509ZM13.4087 31.0609L17.6522 28.9893L13.9862 26.1268L13.4087 31.0609ZM22.3352 28.9893L26.5913 31.0609L26.0013 26.1268L22.3352 28.9893Z" fill="#E4761B" stroke="#E4761B" stroke-linecap="round" stroke-linejoin="round"/>
<path d="M26.5913 31.0609L22.3352 28.9893L22.6742 31.764L22.6365 32.9316L26.5913 31.0609ZM13.4087 31.0609L17.3635 32.9316L17.3384 31.764L17.6522 28.9893L13.4087 31.0609Z" fill="#D7C1B3" stroke="#D7C1B3" stroke-linecap="round" stroke-linejoin="round"/>
<path d="M34.9404 14.3377L36.0075 9.21532L34.4131 4.457L22.3352 13.4212L26.9805 17.3509L33.5468 19.2718L35.0031 17.5769L34.3754 17.1249L35.3798 16.2084L34.6014 15.6058L35.6058 14.8399L34.9404 14.3377ZM3.99246 9.21532L5.05963 14.3377L4.38167 14.8399L5.38606 15.6058L4.62021 16.2084L5.6246 17.1249L4.99686 17.5769L6.44067 19.2718L13.0069 17.3509L17.6522 13.4212L5.57438 4.457L3.99246 9.21532Z" fill="#763D16" stroke="#763D16" stroke-linecap="round" stroke-linejoin="round"/>
<path d="M33.5468 19.2718L26.9806 17.3509L28.9768 20.3515L26.0013 26.1268L29.9184 26.0766H35.7564L33.5468 19.2718ZM13.0069 17.3509L6.44069 19.2718L4.25613 26.0766H10.0816L13.9862 26.1268L11.0232 20.3515L13.0069 17.3509ZM21.9209 20.6654L22.3352 13.4212L24.2436 8.26114H15.769L17.6522 13.4212L18.0917 20.6654L18.2423 22.9504L18.2549 28.575H21.7326L21.7577 22.9504L21.9209 20.6654Z" fill="#F6851B" stroke="#F6851B" stroke-linecap="round" stroke-linejoin="round"/>
</svg>
